<svg width="69" height="84" viewBox="0 0 69 84" fill="none" xmlns="http://www.w3.org/2000/svg">
<g filter="url(#filter0_dd_104_965)">
<path fill-rule="evenodd" clip-rule="evenodd" d="M34.87 67C48.111 67 58.8449 55.8071 58.8449 42C58.8449 28.1929 48.111 17 34.87 17C21.629 17 10.895 28.1929 10.895 42C10.895 55.8071 21.629 67 34.87 67Z" fill="url(#paint0_linear_104_965)"/>
<path d="M57.3449 42C57.3449 55.0385 47.224 65.5 34.87 65.5C22.516 65.5 12.395 55.0385 12.395 42C12.395 28.9615 22.516 18.5 34.87 18.5C47.224 18.5 57.3449 28.9615 57.3449 42Z" stroke="url(#paint1_linear_104_965)" stroke-width="3"/>
</g>
<path d="M43.6939 37.8776C42.9965 37.0811 42.6121 36.0586 42.6122 35H39.4592V47.6531C39.4354 48.338 39.1464 48.9868 38.6534 49.4628C38.1603 49.9387 37.5016 50.2045 36.8163 50.2041C35.3673 50.2041 34.1633 49.0204 34.1633 47.551C34.1633 45.7959 35.8571 44.4796 37.602 45.0204V41.7959C34.0816 41.3265 31 44.0612 31 47.551C31 50.949 33.8163 53.3673 36.8061 53.3673C40.0102 53.3673 42.6122 50.7653 42.6122 47.551V41.1327C43.8908 42.0509 45.4259 42.5435 47 42.5408V39.3878C47 39.3878 45.0816 39.4796 43.6939 37.8776Z" fill="white"/>
<defs>
<filter id="filter0_dd_104_965" x="0.89502" y="0" width="67.9499" height="84" filterUnits="userSpaceOnUse" color-interpolation-filters="sRGB">
<feFlood flood-opacity="0" result="BackgroundImageFix"/>
<feColorMatrix in="SourceAlpha" type="matrix" values="0 0 0 0 0 0 0 0 0 0 0 0 0 0 0 0 0 0 127 0" result="hardAlpha"/>
<feOffset dy="7"/>
<feGaussianBlur stdDeviation="5"/>
<feColorMatrix type="matrix" values="0 0 0 0 0.294118 0 0 0 0 0.294118 0 0 0 0 0.294118 0 0 0 0.1 0"/>
<feBlend mode="normal" in2="BackgroundImageFix" result="effect1_dropShadow_104_965"/>
<feColorMatrix in="SourceAlpha" type="matrix" values="0 0 0 0 0 0 0 0 0 0 0 0 0 0 0 0 0 0 127 0" result="hardAlpha"/>
<feOffset dy="-7"/>
<feGaussianBlur stdDeviation="5"/>
<feColorMatrix type="matrix" values="0 0 0 0 0.294118 0 0 0 0 0.294118 0 0 0 0 0.294118 0 0 0 0.01 0"/>
<feBlend mode="normal" in2="effect1_dropShadow_104_965" result="effect2_dropShadow_104_965"/>
<feBlend mode="normal" in="SourceGraphic" in2="effect2_dropShadow_104_965" result="shape"/>
</filter>
<linearGradient id="paint0_linear_104_965" x1="10.895" y1="42" x2="58.8449" y2="42" gradientUnits="userSpaceOnUse">
<stop stop-color="#EE3A1B"/>
<stop offset="0.99" stop-color="#D1234D"/>
</linearGradient>
<linearGradient id="paint1_linear_104_965" x1="10.895" y1="42" x2="58.8449" y2="42" gradientUnits="userSpaceOnUse">
<stop stop-color="#EE3A1B"/>
<stop offset="0.99" stop-color="#D1234D"/>
</linearGradient>
</defs>
</svg>
