<svg width="69" height="84" viewBox="0 0 69 84" fill="none" xmlns="http://www.w3.org/2000/svg">
<g filter="url(#filter0_dd_104_965)">
<path fill-rule="evenodd" clip-rule="evenodd" d="M34.87 67C48.111 67 58.8449 55.8071 58.8449 42C58.8449 28.1929 48.111 17 34.87 17C21.629 17 10.895 28.1929 10.895 42C10.895 55.8071 21.629 67 34.87 67Z" fill="url(#paint0_linear_104_965)"/>
<path d="M57.3449 42C57.3449 55.0385 47.224 65.5 34.87 65.5C22.516 65.5 12.395 55.0385 12.395 42C12.395 28.9615 22.516 18.5 34.87 18.5C47.224 18.5 57.3449 28.9615 57.3449 42Z" stroke="url(#paint1_linear_104_965)" stroke-width="3"/>
</g>
<path d="M33.6228 49.393L33.6031 43.0961H31.0344V40.3974H33.6031V38.5983C33.6031 36.1702 35.0344 35 37.0961 35C38.0837 35 38.9325 35.0772 39.1798 35.1118V37.6493L37.7499 37.65C36.6286 37.65 36.4115 38.2097 36.4115 39.0312V40.3974H39.5969L38.7406 43.0961H36.4115V49.393H33.6228Z" fill="white"/>
<defs>
<filter id="filter0_dd_104_965" x="0.89502" y="0" width="67.9499" height="84" filterUnits="userSpaceOnUse" color-interpolation-filters="sRGB">
<feFlood flood-opacity="0" result="BackgroundImageFix"/>
<feColorMatrix in="SourceAlpha" type="matrix" values="0 0 0 0 0 0 0 0 0 0 0 0 0 0 0 0 0 0 127 0" result="hardAlpha"/>
<feOffset dy="7"/>
<feGaussianBlur stdDeviation="5"/>
<feColorMatrix type="matrix" values="0 0 0 0 0.294118 0 0 0 0 0.294118 0 0 0 0 0.294118 0 0 0 0.1 0"/>
<feBlend mode="normal" in2="BackgroundImageFix" result="effect1_dropShadow_104_965"/>
<feColorMatrix in="SourceAlpha" type="matrix" values="0 0 0 0 0 0 0 0 0 0 0 0 0 0 0 0 0 0 127 0" result="hardAlpha"/>
<feOffset dy="-7"/>
<feGaussianBlur stdDeviation="5"/>
<feColorMatrix type="matrix" values="0 0 0 0 0.294118 0 0 0 0 0.294118 0 0 0 0 0.294118 0 0 0 0.01 0"/>
<feBlend mode="normal" in2="effect1_dropShadow_104_965" result="effect2_dropShadow_104_965"/>
<feBlend mode="normal" in="SourceGraphic" in2="effect2_dropShadow_104_965" result="shape"/>
</filter>
<linearGradient id="paint0_linear_104_965" x1="10.895" y1="42" x2="58.8449" y2="42" gradientUnits="userSpaceOnUse">
<stop stop-color="#EE3A1B"/>
<stop offset="0.99" stop-color="#D1234D"/>
</linearGradient>
<linearGradient id="paint1_linear_104_965" x1="10.895" y1="42" x2="58.8449" y2="42" gradientUnits="userSpaceOnUse">
<stop stop-color="#EE3A1B"/>
<stop offset="0.99" stop-color="#D1234D"/>
</linearGradient>
</defs>
</svg>
