<svg width="69" height="84" viewBox="0 0 69 84" fill="none" xmlns="http://www.w3.org/2000/svg">
<g filter="url(#filter0_dd_269_662)">
<path fill-rule="evenodd" clip-rule="evenodd" d="M34.4225 67C47.6634 67 58.3974 55.8071 58.3974 42C58.3974 28.1929 47.6634 17 34.4225 17C21.1815 17 10.4475 28.1929 10.4475 42C10.4475 55.8071 21.1815 67 34.4225 67Z" fill="url(#paint0_linear_269_662)"/>
<path d="M56.8974 42C56.8974 55.0385 46.7765 65.5 34.4225 65.5C22.0685 65.5 11.9475 55.0385 11.9475 42C11.9475 28.9615 22.0685 18.5 34.4225 18.5C46.7765 18.5 56.8974 28.9615 56.8974 42Z" stroke="url(#paint1_linear_269_662)" stroke-width="3"/>
</g>
<path fill-rule="evenodd" clip-rule="evenodd" d="M44.9558 34.5047C45.2867 32.8908 43.7019 31.5496 42.1655 32.1433L23.3319 39.4216C21.6161 40.0847 21.5396 42.4845 23.2097 43.2555L27.3112 45.1489L29.2623 51.9793C29.3636 52.3341 29.6451 52.6088 30.0022 52.7014C30.3593 52.7938 30.7387 52.6905 30.9996 52.4296L34.005 49.4234L38.2151 52.5817C39.4372 53.4984 41.1974 52.8307 41.5043 51.3339L44.9558 34.5047ZM24.0823 41.3644L42.9159 34.0862L39.4645 50.9155L34.5321 47.2152C34.1176 46.9043 33.5376 46.9455 33.1712 47.312L31.8839 48.5995L32.2707 46.4719L39.8493 38.8916C40.2182 38.5227 40.2571 37.9377 39.9405 37.5231C39.6239 37.1085 39.0495 36.9922 38.5966 37.251L28.1303 43.2331L24.0823 41.3644ZM29.4064 44.9025L30.0378 47.1128L30.2801 45.7793C30.318 45.5709 30.4186 45.379 30.5683 45.2292L32.8795 42.9175L29.4064 44.9025Z" fill="#FCFBFF"/>
<defs>
<filter id="filter0_dd_269_662" x="0.44751" y="0" width="67.9499" height="84" filterUnits="userSpaceOnUse" color-interpolation-filters="sRGB">
<feFlood flood-opacity="0" result="BackgroundImageFix"/>
<feColorMatrix in="SourceAlpha" type="matrix" values="0 0 0 0 0 0 0 0 0 0 0 0 0 0 0 0 0 0 127 0" result="hardAlpha"/>
<feOffset dy="7"/>
<feGaussianBlur stdDeviation="5"/>
<feColorMatrix type="matrix" values="0 0 0 0 0.294118 0 0 0 0 0.294118 0 0 0 0 0.294118 0 0 0 0.1 0"/>
<feBlend mode="normal" in2="BackgroundImageFix" result="effect1_dropShadow_269_662"/>
<feColorMatrix in="SourceAlpha" type="matrix" values="0 0 0 0 0 0 0 0 0 0 0 0 0 0 0 0 0 0 127 0" result="hardAlpha"/>
<feOffset dy="-7"/>
<feGaussianBlur stdDeviation="5"/>
<feColorMatrix type="matrix" values="0 0 0 0 0.294118 0 0 0 0 0.294118 0 0 0 0 0.294118 0 0 0 0.01 0"/>
<feBlend mode="normal" in2="effect1_dropShadow_269_662" result="effect2_dropShadow_269_662"/>
<feBlend mode="normal" in="SourceGraphic" in2="effect2_dropShadow_269_662" result="shape"/>
</filter>
<linearGradient id="paint0_linear_269_662" x1="10.4475" y1="42" x2="58.3974" y2="42" gradientUnits="userSpaceOnUse">
<stop stop-color="#EE3A1B"/>
<stop offset="0.99" stop-color="#D1234D"/>
</linearGradient>
<linearGradient id="paint1_linear_269_662" x1="10.4475" y1="42" x2="58.3974" y2="42" gradientUnits="userSpaceOnUse">
<stop stop-color="#EE3A1B"/>
<stop offset="0.99" stop-color="#D1234D"/>
</linearGradient>
</defs>
</svg>
